<svg width="20" height="23" viewBox="0 0 20 23" fill="none" xmlns="http://www.w3.org/2000/svg">
<path d="M18.4608 9.3106L18.7474 9.58955L19.0264 9.30287L18.7397 9.02392L18.4608 9.3106ZM9.86986 0.951415L10.1488 0.664732V0.664732L9.86986 0.951415ZM17.9029 9.88397L17.6239 10.1706L17.9106 10.4496L18.1895 10.1629L17.9029 9.88397ZM9.99091 2.18542L10.2699 1.89873L9.59091 1.2381V2.18542H9.99091ZM9.99091 22.5159V22.9159H10.3909V22.5159H9.99091ZM9.19091 22.5159H8.79091V22.9159H9.19091V22.5159ZM9.19091 2.18542H9.59091V1.2381L8.91196 1.89873L9.19091 2.18542ZM1.27895 9.88397L0.992266 10.1629L1.27122 10.4496L1.5579 10.1706L1.27895 9.88397ZM0.721048 9.3106L0.442099 9.02392L0.155416 9.30287L0.434366 9.58955L0.721048 9.3106ZM9.31196 0.951415L9.03301 0.664732V0.664732L9.31196 0.951415ZM9.59091 0.67999L9.86986 0.393307L9.59091 0.121882L9.31196 0.393307L9.59091 0.67999ZM18.7397 9.02392L10.1488 0.664732L9.59091 1.2381L18.1818 9.59728L18.7397 9.02392ZM18.1895 10.1629L18.7474 9.58955L18.1741 9.03165L17.6162 9.60502L18.1895 10.1629ZM9.71196 2.4721L17.6239 10.1706L18.1818 9.59728L10.2699 1.89873L9.71196 2.4721ZM10.3909 22.5159V2.18542H9.59091L9.59091 22.5159H10.3909ZM9.19091 22.9159H9.99091V22.1159H9.19091V22.9159ZM8.79091 2.18542L8.79091 22.5159H9.59091L9.59091 2.18542H8.79091ZM1.5579 10.1706L9.46986 2.4721L8.91196 1.89873L0.999998 9.59728L1.5579 10.1706ZM0.434366 9.58955L0.992266 10.1629L1.56563 9.60502L1.00773 9.03165L0.434366 9.58955ZM9.03301 0.664732L0.442099 9.02392L0.999998 9.59728L9.59091 1.2381L9.03301 0.664732ZM9.31196 0.393307L9.03301 0.664732L9.59091 1.2381L9.86986 0.966673L9.31196 0.393307ZM10.1488 0.664732L9.86986 0.393307L9.31196 0.966673L9.59091 1.2381L10.1488 0.664732Z" fill="#15573F"/>
</svg>
